<?xml version="1.0" encoding="UTF-8"?>
<svg width="24" height="24" viewBox="0 0 24 24" fill="currentColor" xmlns="http://www.w3.org/2000/svg">
  <path d="M19.589 6.686a4.793 4.793 0 0 1-3.77-4.245V2h-3.166v13.672c0 2.3-1.878 4.166-4.177 4.166-2.3 0-4.177-1.866-4.177-4.166 0-2.3 1.877-4.166 4.177-4.166.458 0 .898.074 1.311.21v-3.26a7.33 7.33 0 0 0-1.311-.123C4.867 8.333 2 11.2 2 14.707c0 3.509 2.867 6.376 6.476 6.376 3.61 0 6.476-2.867 6.476-6.376V8.67c1.201.789 2.647 1.25 4.177 1.25v-3.234a4.815 4.815 0 0 1-3.77-4.245V2h-3.166"/>
</svg> 